<svg xmlns="http://www.w3.org/2000/svg" width="600" height="600">

 <g>
  <title>background</title>
  <rect fill="none" id="canvas_background" height="602" width="602" y="-1" x="-1"/>
 </g>
 <g>
  <title>Layer 1</title>
  <g id="product_backlog"/>
  <g id="Layer_32"/>
  <g id="Layer_33"/>
  <g id="Layer_35"/>
  <g id="Layer_36"/>
  <g id="Layer_25"/>
  <g id="Layer_31"/>
  <g id="Layer_26"/>
  <g id="Layer_27">
   <g id="New_Symbol_6_"/>
  </g>
  <g id="Layer_28">
   <g id="New_Symbol_5_"/>
   <g id="New_Symbol_4_"/>
  </g>
  <g id="Layer_29">
   <g id="New_Symbol_3_"/>
   <g id="New_Symbol_2_"/>
   <g id="New_Symbol_1_"/>
   <g id="New_Symbol"/>
  </g>
  <g id="Layer_30"/>
  <g id="Layer_23"/>
  <g id="Layer_38"/>
  <g id="Layer_37"/>
  <g id="Layer_9"/>
  <g id="Layer_39"/>
  <g id="Layer_14"/>
  <g id="Layer_15"/>
  <g id="workflow"/>
  <g id="planing"/>
  <g id="product_backlog_1_">
   <g id="star"/>
  </g>
  <g id="sprint_backlog"/>
  <g id="Layer_40"/>
  <g id="Layer_41"/>
  <g id="retrospective"/>
  <g id="target"/>
  <g id="velocity"/>
  <g id="Layer_42"/>
  <g id="estimate"/>
  <g id="calculator"/>
  <g id="stopwatch"/>
  <g stroke="null" id="poker">
   <g stroke="null" id="svg_1">
    <g stroke="null" id="svg_2">
     <g stroke="null" id="svg_3">
      <path stroke="null" id="svg_4" fill="#ffffff" d="m321.412878,194.593132l73.276866,20.693501l-48.501243,190.745899l-38.83525,-10.962769l39.274613,-154.451836l-34.441616,-9.722885l9.22663,-36.30191z"/>
     </g>
    </g>
   </g>
   <g stroke="null" id="svg_5">
    <g stroke="null" id="svg_6">
     <g stroke="null" id="svg_7">
      <path stroke="null" id="svg_8" fill="#ffffff" d="m145.801591,327.904167c-6.575556,0 -12.5926,-4.629945 -14.372393,-11.637642l-25.497966,-100.289323c-6.374492,-25.072331 7.78939,-50.945093 31.589478,-57.670285l42.796966,-12.077095c7.945774,-2.275736 16.107506,2.723036 18.244748,11.096174c2.129795,8.373138 -2.591499,16.981698 -10.537273,19.218197l-42.78952,12.077095c-7.93088,2.244346 -12.652174,10.8686 -10.529826,19.226044l25.497966,100.289323c2.129795,8.365291 -2.584052,16.97385 -10.529826,19.218197c-1.295749,0.376674 -2.598946,0.549316 -3.872355,0.549316z"/>
     </g>
    </g>
   </g>
   <g stroke="null" id="svg_9">
    <g stroke="null" id="svg_10">
     <g stroke="null" id="svg_11">
      <g stroke="null" id="svg_12">
       <path stroke="null" id="svg_13" fill="#ffffff" d="m321.412878,194.593132l73.276866,20.693501l-48.501243,190.745899l-38.83525,-10.962769l39.274613,-154.451836l-34.441616,-9.722885l9.22663,-36.30191z"/>
      </g>
     </g>
    </g>
    <g stroke="null" id="svg_14">
     <g stroke="null" id="svg_15">
      <g stroke="null" id="svg_16">
       <path stroke="null" id="svg_17" fill="#ffffff" d="m505.699728,201.891181c-2.591499,0 -5.197892,-0.360979 -7.759603,-1.090784c-7.677688,-2.158025 -14.104307,-7.360828 -18.080918,-14.619641c-3.984057,-7.258813 -5.034061,-15.718272 -2.971288,-23.816752c2.055327,-8.090633 6.985132,-14.870756 13.873455,-19.061249c6.89577,-4.182645 14.930906,-5.304819 22.608594,-3.131099c7.685135,2.165873 14.104307,7.360828 18.080918,14.619641c3.97661,7.26666 5.034061,15.718272 2.978734,23.808905l0,0c0,0.007847 0,0.007847 0,0.007847c0,0 0,0 0,0.007847c-2.055327,8.090633 -6.985132,14.870756 -13.873455,19.053402c-4.602145,2.801509 -9.703227,4.221882 -14.856438,4.221882z"/>
      </g>
     </g>
    </g>
    <g stroke="null" id="svg_18">
     <g stroke="null" id="svg_19">
      <g stroke="null" id="svg_20">
       <path stroke="null" id="svg_21" fill="#ffffff" d="m176.326172,466.363073c-2.591499,0 -5.197892,-0.360979 -7.759603,-1.090784c-7.685135,-2.165873 -14.104307,-7.360828 -18.080918,-14.619641c-3.984057,-7.26666 -5.034061,-15.726119 -2.971288,-23.8246c2.055327,-8.090633 6.985132,-14.862909 13.873455,-19.053402c6.89577,-4.19834 14.930906,-5.312666 22.608594,-3.131099c7.677688,2.158025 14.104307,7.360828 18.080918,14.619641c3.97661,7.258813 5.034061,15.718272 2.978734,23.816752l0,0c-2.062774,8.090633 -6.985132,14.870756 -13.880902,19.061249c-4.594698,2.785815 -9.688334,4.221882 -14.848991,4.221882z"/>
      </g>
     </g>
    </g>
   </g>
   <path stroke="null" id="svg_22" fill="#ffffff" d="m553.687139,102.810352l-147.938844,-41.771523l-2.606393,-10.240811c-6.374492,-25.064483 -30.889476,-39.998019 -54.719351,-33.288522l-48.419328,13.677957l-48.426774,-13.67011c-23.800088,-6.709497 -48.337412,8.224038 -54.719351,33.288522l-2.606393,10.240811l-147.946291,41.771523c-23.792641,6.717344 -37.971417,32.590106 -31.589478,57.670285l100.219519,394.165292c5.339381,21.007396 23.44264,34.897232 43.169308,34.897232c3.81278,0 7.692582,-0.517926 11.550043,-1.60871l130.34197,-36.804141l130.334524,36.804141c0,0 0,0 0,0c3.857461,1.090784 7.729816,1.60871 11.542596,1.60871c19.726669,0 37.829927,-13.897683 43.169308,-34.897232l100.219519,-394.165292c6.404279,-25.080178 -7.774497,-50.95294 -31.574585,-57.678132zm-184.391106,-52.059419l-11.572383,-3.272351c4.207462,-0.682721 8.392584,0.588552 11.572383,3.272351zm-315.269249,82.381637l131.3324,-37.086647l-1.608517,6.340671l-62.545976,245.991348l-13.93303,54.782454l-63.774703,-250.801782c-2.129795,-8.365291 2.598946,-16.981698 10.529826,-19.226044zm107.934441,424.479662c-7.938327,2.236499 -16.1224,-2.73873 -18.244748,-11.096174l-10.820253,-42.571955l109.565298,30.934312l-80.500297,22.733816zm394.555712,-405.253618l-100.226966,394.157444c-2.129795,8.357444 -10.343655,13.301284 -18.244748,11.096174l-302.103243,-85.300856c-7.93088,-2.244346 -12.659621,-10.8686 -10.537273,-19.226044l34.791618,-136.826654c0,0 0,-0.007847 0,-0.007847l38.336312,-150.779269c0,-0.007847 0.007447,-0.023542 0.007447,-0.031389l20.769226,-81.691069l6.314917,-24.83691c2.129795,-8.357444 10.306421,-13.301284 18.244748,-11.096174l302.103243,85.300856c7.938327,2.260041 12.667068,10.876448 10.54472,19.241739z"/>
  </g>
  <g id="user_story"/>
  <g id="Layer_7"/>
  <g id="Layer_6"/>
 </g>
</svg>