<svg xmlns:x="http://ns.adobe.com/Extensibility/1.0/" xmlns:i="http://ns.adobe.com/AdobeIllustrator/10.0/" xmlns:graph="http://ns.adobe.com/Graphs/1.0/" xmlns="http://www.w3.org/2000/svg" xmlns:xlink="http://www.w3.org/1999/xlink" xmlns:a="http://ns.adobe.com/AdobeSVGViewerExtensions/3.0/" version="1.1" x="0px" y="0px" width="864px" height="864px" viewBox="0 0 864 864" enable-background="new 0 0 864 864" xml:space="preserve">

<g id="Layer_2">
	<path fill="#ffffff" d="M784.161,435.9c33.341-21.61,50.019-49.569,50.019-83.874c0-33.422-19.76-61.49-59.271-84.213   c-39.52-22.725-88.763-34.081-147.745-34.081c-53.458,0-109.917,18.718-169.371,56.114v-0.002l-48.7,27.012v-0.929   c-0.204,0.135-0.403,0.264-0.607,0.4c-22.742-23.331-53.101-42.938-91.076-58.823c-37.966-15.885-75.652-23.833-113.049-23.833   c-51.267,0-93.579,10.808-126.929,32.413c-33.34,21.61-50.019,49.568-50.019,83.874c0,33.422,19.76,61.49,59.271,84.213   c39.521,22.725,88.763,34.081,147.746,34.081c52.685,0,108.285-18.189,166.794-54.512v0.005l52.246-27.729   c22.702,23.171,52.936,42.662,90.715,58.464c37.966,15.885,75.652,23.832,113.049,23.832   C708.499,468.312,750.812,457.506,784.161,435.9z M192.794,414.712c-41.635,0-73.439-5.799-95.413-17.401   c-21.974-11.597-32.96-28.329-32.96-50.196c0-20.522,12.82-36.695,38.453-48.522c25.643-11.822,61.395-17.736,107.268-17.736   c30.847,0,63.32,5.135,97.437,15.394c34.117,10.264,60.049,22.311,77.776,36.141C305.943,387.271,241.756,414.712,192.794,414.712z    M476.237,369.595c79.411-54.881,143.599-82.321,192.561-82.321c41.635,0,73.438,5.799,95.413,17.401   c21.974,11.598,32.96,28.329,32.96,50.195c0,20.523-12.82,36.695-38.453,48.523c-25.643,11.821-61.396,17.735-107.268,17.735   c-30.847,0-63.319-5.134-97.437-15.393C519.896,395.472,493.965,383.425,476.237,369.595z"/>
</g>
</svg>